cover image: 
http://s1.postimage.org/m4zypqyp4/coverimage.jpg

Plot:
A test pilot is granted a mystical green ring that bestows him with otherworldly powers, as well as membership into an intergalactic squadron tasked with keeping peace within the universe.

General
Format : Flash Video
File size : 499 MiB
Duration : 1h 44mn
Overall bit rate : 669 Kbps
Tagging application : Yet Another Metadata Injector for FLV - Version 1.5

Video
Format : H.263
Codec ID : 2
Codec ID/Hint : Sorenson
Duration : 1h 44mn
Bit rate : 583 Kbps
Width : 360 pixels
Height : 240 pixels
Display aspect ratio : 3:2
Frame rate mode : Constant
Frame rate : 23.000 fps
Bit depth : 8 bits
Compression mode : Lossy
Bits/(Pixel*Frame) : 0.293
Stream size : 446 MiB (90%)

Audio
Format : MPEG Audio
Format version : Version 1
Format profile : Layer 3
Mode : Joint stereo
Mode extension : MS Stereo
Codec ID : 2
Codec ID/Hint : MP3
Duration : 1h 44mn
Bit rate mode : Constant
Bit rate : 64.0 Kbps
Channel(s) : 2 channels
Sampling rate : 44.1 KHz
Compression mode : Lossy
Delay relative to video : -43ms
Stream size : 50.4 MiB (10%)

Screenshots: